<svg width="400" height="300" viewBox="0 0 400 300" xmlns="http://www.w3.org/2000/svg">
  <defs>
    <linearGradient id="bgGrad" x1="0%" y1="0%" x2="100%" y2="100%">
      <stop offset="0%" style="stop-color:#0f172a"/>
      <stop offset="100%" style="stop-color:#1e1b4b"/>
    </linearGradient>
    <linearGradient id="purpleGrad" x1="0%" y1="0%" x2="100%" y2="0%">
      <stop offset="0%" style="stop-color:#9333ea"/>
      <stop offset="100%" style="stop-color:#3b82f6"/>
    </linearGradient>
    <linearGradient id="iconGrad" x1="0%" y1="0%" x2="100%" y2="100%">
      <stop offset="0%" style="stop-color:#a855f7"/>
      <stop offset="100%" style="stop-color:#6366f1"/>
    </linearGradient>
  </defs>

  <!-- Background -->
  <rect width="400" height="300" fill="url(#bgGrad)"/>

  <!-- Decorative circles -->
  <circle cx="50" cy="50" r="100" fill="#9333ea" opacity="0.1"/>
  <circle cx="350" cy="250" r="80" fill="#3b82f6" opacity="0.1"/>

  <!-- Logo box -->
  <rect x="170" y="80" width="60" height="60" rx="12" fill="url(#iconGrad)"/>

  <!-- Lightning bolt icon -->
  <path d="M200 95 L190 115 L198 115 L195 135 L210 110 L202 110 L205 95 Z" fill="white"/>

  <!-- Title -->
  <text x="200" y="175" text-anchor="middle" font-family="Arial, sans-serif" font-size="24" font-weight="bold" fill="white">AI Plugin System</text>

  <!-- Subtitle -->
  <text x="200" y="205" text-anchor="middle" font-family="Arial, sans-serif" font-size="14" fill="#94a3b8">No-Code AI Integration</text>

  <!-- Feature pills -->
  <rect x="100" y="230" width="80" height="28" rx="14" fill="#9333ea" opacity="0.3"/>
  <text x="140" y="249" text-anchor="middle" font-family="Arial, sans-serif" font-size="11" fill="#c084fc">Chatbot</text>

  <rect x="190" y="230" width="80" height="28" rx="14" fill="#3b82f6" opacity="0.3"/>
  <text x="230" y="249" text-anchor="middle" font-family="Arial, sans-serif" font-size="11" fill="#93c5fd">Lead Gen</text>

  <!-- Status badge -->
  <rect x="290" y="230" width="60" height="28" rx="14" fill="#22c55e" opacity="0.2"/>
  <circle cx="305" cy="244" r="4" fill="#22c55e"/>
  <text x="330" y="249" text-anchor="middle" font-family="Arial, sans-serif" font-size="11" fill="#86efac">Live</text>
</svg>