<svg viewBox="0 0 200 240" xmlns="http://www.w3.org/2000/svg">
  <!-- Title and metadata -->
  <defs>
    <style>
      .sss-dark { fill: #1a365d; }
      .sss-medium { fill: #2b6cb0; }
      .sss-light { fill: #4299e1; }
    </style>
  </defs>

  <!-- First S - Dark Navy Blue (top) -->
  <g class="sss-dark">
    <path d="M 60 20 C 75 20 85 30 85 45 C 85 55 78 62 68 65 C 78 68 85 75 85 88 C 85 103 74 115 58 115 C 43 115 32 103 32 88 L 45 88 C 45 97 50 105 58 105 C 66 105 72 99 72 88 C 72 79 66 72 58 72 L 50 72 L 50 62 L 58 62 C 64 62 70 56 70 45 C 70 35 64 30 58 30 C 50 30 45 36 45 45 L 32 45 C 32 30 43 20 60 20 Z" />
  </g>

  <!-- Second S - Medium Blue (overlapping middle) -->
  <g class="sss-medium">
    <path d="M 100 70 C 115 70 125 80 125 95 C 125 105 118 112 108 115 C 118 118 125 125 125 138 C 125 153 114 165 98 165 C 83 165 72 153 72 138 L 85 138 C 85 147 90 155 98 155 C 106 155 112 149 112 138 C 112 129 106 122 98 122 L 90 122 L 90 112 L 98 112 C 104 112 110 106 110 95 C 110 85 104 80 98 80 C 90 80 85 86 85 95 L 72 95 C 72 80 83 70 100 70 Z" />
  </g>

  <!-- Third S - Light Blue/Cyan (bottom) -->
  <g class="sss-light">
    <path d="M 140 120 C 155 120 165 130 165 145 C 165 155 158 162 148 165 C 158 168 165 175 165 188 C 165 203 154 215 138 215 C 123 215 112 203 112 188 L 125 188 C 125 197 130 205 138 205 C 146 205 152 199 152 188 C 152 179 146 172 138 172 L 130 172 L 130 162 L 138 162 C 144 162 150 156 150 145 C 150 135 144 130 138 130 C 130 130 125 136 125 145 L 112 145 C 112 130 123 120 140 120 Z" />
  </g>
</svg>
